<?xml version="1.0" encoding="UTF-8" standalone="no"?>
<!-- Created with Inkscape (http://www.inkscape.org/) -->

<svg
   xmlns:dc="http://purl.org/dc/elements/1.1/"
   xmlns:cc="http://creativecommons.org/ns#"
   xmlns:rdf="http://www.w3.org/1999/02/22-rdf-syntax-ns#"
   xmlns:svg="http://www.w3.org/2000/svg"
   xmlns="http://www.w3.org/2000/svg"
   xmlns:sodipodi="http://sodipodi.sourceforge.net/DTD/sodipodi-0.dtd"
   xmlns:inkscape="http://www.inkscape.org/namespaces/inkscape"
   width="23.798025mm"
   height="25.3517mm"
   viewBox="0 0 23.798025 25.3517"
   version="1.1"
   id="svg8"
   inkscape:version="0.92.4 (5da689c313, 2019-01-14)"
   sodipodi:docname="cel.svg">
  <defs
     id="defs2" />
  <sodipodi:namedview
     id="base"
     pagecolor="#ffffff"
     bordercolor="#666666"
     borderopacity="1.0"
     inkscape:pageopacity="0.0"
     inkscape:pageshadow="2"
     inkscape:zoom="0.35"
     inkscape:cx="-730.12927"
     inkscape:cy="-84.899497"
     inkscape:document-units="mm"
     inkscape:current-layer="layer1"
     showgrid="false"
     inkscape:window-width="1366"
     inkscape:window-height="745"
     inkscape:window-x="1352"
     inkscape:window-y="-8"
     inkscape:window-maximized="1"
     showguides="true"
     inkscape:guide-bbox="true"
     fit-margin-top="0"
     fit-margin-left="0"
     fit-margin-right="0"
     fit-margin-bottom="0">
    <sodipodi:guide
       position="-3.0739973,-56.480849"
       orientation="1,0"
       id="guide195"
       inkscape:locked="false" />
    <sodipodi:guide
       position="28.675998,-21.70703"
       orientation="1,0"
       id="guide197"
       inkscape:locked="false" />
    <sodipodi:guide
       position="-3.0739973,30.45367"
       orientation="0,1"
       id="guide199"
       inkscape:locked="false" />
    <sodipodi:guide
       position="-58.25852,-2.8082196"
       orientation="0,1"
       id="guide201"
       inkscape:locked="false" />
  </sodipodi:namedview>
  <metadata
     id="metadata5">
    <rdf:RDF>
      <cc:Work
         rdf:about="">
        <dc:format>image/svg+xml</dc:format>
        <dc:type
           rdf:resource="http://purl.org/dc/dcmitype/StillImage" />
        <dc:title></dc:title>
      </cc:Work>
    </rdf:RDF>
  </metadata>
  <g
     inkscape:label="Capa 1"
     inkscape:groupmode="layer"
     id="layer1"
     transform="translate(-77.913281,-40.54245)">
    <path
       style="fill:#010101;stroke-width:0.0481159"
       d="m 100.8653,63.054688 c -0.50301,-1.57862 -0.977727,-3.06671 -1.054927,-3.30685 l -0.14036,-0.43663 0.400047,-0.85322 c 0.44289,-0.94456 0.66898,-1.56212 0.87389,-2.38705 0.85682,-3.44918 0.29679,-7.06029 -1.552324,-10.0097 -1.074467,-1.71382 -2.616228,-3.17974 -4.346527,-4.13272 -1.242663,-0.68441 -2.484727,-1.09805 -3.975274,-1.323865 -0.546924,-0.08286 -2.34547,-0.08296 -2.893379,-1.61e-4 -2.720783,0.411156 -5.032575,1.612896 -6.885741,3.579426 -1.73874,1.8451 -2.87275,4.21881 -3.27141,6.84762 -0.0815,0.53545 -0.10238,0.89352 -0.10562,1.78594 -0.005,1.17994 0.0356,1.62293 0.23739,2.6541 0.71175,3.63191 3.058107,6.81887 6.245324,8.48281 1.173818,0.61281 2.16252,0.9432 3.500048,1.16957 0.847564,0.14345 2.356738,0.15624 3.243356,0.0275 1.350849,-0.19617 2.87274,-0.69954 3.877002,-1.28233 l 0.260251,-0.15103 3.174773,1.07215 c 1.746121,0.58969 3.209271,1.08622 3.251421,1.10342 0.0558,0.0227 -0.17308,-0.75241 -0.83794,-2.83897 z m -12.235687,0.17846 c -2.319826,-0.26571 -4.343394,-1.28787 -5.984068,-3.02273 -2.081998,-2.20149 -3.13045,-5.2587 -2.84409,-8.29306 0.23229,-2.46131 1.182456,-4.58229 2.842395,-6.34488 1.889069,-2.00589 4.317795,-3.07375 6.990883,-3.07375 3.499675,0 6.696857,1.95193 8.509347,5.19509 1.845513,3.30225 1.753153,7.53623 -0.235531,10.79715 -0.286293,0.46945 -0.296424,0.49665 -0.249472,0.66973 0.02697,0.0992 0.300463,0.96734 0.607877,1.92914 0.307414,0.9618 0.553371,1.74873 0.546568,1.74873 -0.0072,0 -0.838399,-0.27894 -1.847997,-0.61986 -1.009602,-0.34093 -1.868278,-0.61998 -1.908171,-0.62012 -0.03986,-1.5e-4 -0.172124,0.0669 -0.293849,0.14895 -0.27823,0.18757 -1.038417,0.5969 -1.406978,0.7576 -0.865231,0.37726 -1.66257,0.58296 -2.893379,0.74645 -0.311009,0.0413 -1.408195,0.0303 -1.833535,-0.0184 z m -1.619501,-4.58495 c 0.691654,-0.16011 2.1903,-0.73294 2.893028,-1.1058 1.482708,-0.78671 2.89886,-2.19352 4.206989,-4.17922 0.463073,-0.70293 0.649899,-1.04434 0.869089,-1.58817 0.611517,-1.51724 0.409304,-2.97372 -0.562438,-4.05113 -0.360633,-0.39984 -0.515595,-0.46265 -1.141344,-0.46265 -0.595171,0 -0.678745,0.0343 -0.824504,0.33814 -0.265863,0.55425 -1.031051,2.58839 -1.030665,2.73987 5.84e-4,0.22778 0.197644,0.57623 0.601943,1.06437 0.389405,0.47015 0.406622,0.56681 0.174098,0.9773 -0.530571,0.93664 -1.386878,1.90777 -2.248655,2.55015 -0.473157,0.35271 -1.55429,0.91835 -1.814952,0.94959 -0.181602,0.0218 -0.213017,0.008 -0.374112,-0.16786 -0.0967,-0.10538 -0.371631,-0.45112 -0.61089,-0.7683 -0.452254,-0.59953 -0.548715,-0.67151 -0.795238,-0.59341 -0.385516,0.12214 -2.527529,1.23377 -2.629812,1.36478 -0.08857,0.11341 -0.03852,0.85647 0.08583,1.27415 0.110917,0.37267 0.278915,0.62081 0.626583,0.92548 0.719043,0.6301 1.750496,0.9236 2.575063,0.73271 z"
       id="path203"
       inkscape:connector-curvature="0" />
  </g>
</svg>
