<?xml version="1.0" encoding="UTF-8" standalone="no"?>
<!-- The icon can be used freely in both personal and commercial projects with no attribution required, but always appreciated. 
You may NOT sub-license, resell, rent, redistribute or otherwise transfer the icon without express written permission from iconmonstr.com -->

<svg
   xmlns:dc="http://purl.org/dc/elements/1.1/"
   xmlns:cc="http://creativecommons.org/ns#"
   xmlns:rdf="http://www.w3.org/1999/02/22-rdf-syntax-ns#"
   xmlns:svg="http://www.w3.org/2000/svg"
   xmlns="http://www.w3.org/2000/svg"
   xmlns:sodipodi="http://sodipodi.sourceforge.net/DTD/sodipodi-0.dtd"
   xmlns:inkscape="http://www.inkscape.org/namespaces/inkscape"
   version="1.1"
   x="0px"
   y="0px"
   width="412"
   height="412"
   viewBox="0 0 412 412"
   enable-background="new 0 0 512 512"
   xml:space="preserve"
   id="svg223"
   sodipodi:docname="correo.svg"
   inkscape:version="0.92.4 (5da689c313, 2019-01-14)"><metadata
   id="metadata229"><rdf:RDF><cc:Work
       rdf:about=""><dc:format>image/svg+xml</dc:format><dc:type
         rdf:resource="http://purl.org/dc/dcmitype/StillImage" /><dc:title></dc:title></cc:Work></rdf:RDF></metadata><defs
   id="defs227" /><sodipodi:namedview
   pagecolor="#ffffff"
   bordercolor="#666666"
   borderopacity="1"
   objecttolerance="10"
   gridtolerance="10"
   guidetolerance="10"
   inkscape:pageopacity="0"
   inkscape:pageshadow="2"
   inkscape:window-width="1366"
   inkscape:window-height="745"
   id="namedview225"
   showgrid="false"
   fit-margin-top="0"
   fit-margin-left="0"
   fit-margin-right="0"
   fit-margin-bottom="0"
   inkscape:zoom="1.125"
   inkscape:cx="206"
   inkscape:cy="241.55556"
   inkscape:window-x="1352"
   inkscape:window-y="-8"
   inkscape:window-maximized="1"
   inkscape:current-layer="svg223" />

<path
   id="email-10-icon"
   d="m 206,40 c 44.34,0 86.026,17.267 117.38,48.62 C 354.734,119.973 372,161.659 372,206 372,250.34 354.733,292.026 323.38,323.38 292.026,354.732 250.34,372 206,372 161.66,372 119.974,354.732 88.62,323.38 57.267,292.026 40,250.34 40,206 40,161.659 57.267,119.974 88.62,88.62 119.973,57.266 161.66,40 206,40 M 206,0 C 92.229,0 0,92.229 0,206 0,319.771 92.229,412 206,412 319.771,412 412,319.771 412,206 412,92.229 319.771,0 206,0 Z m -23.241,191.081 m -19.34,7.275 -61.479,-47.225 v 108.702 z m 148.095,-69.178 h -208.85 l 104.342,80.152 z m -75.262,80.218 -29.255,22.437 -29.303,-22.508 -75.498,75.498 H 311.68 Z m 14.286,-10.958 61.522,61.522 V 151.254 Z"
   inkscape:connector-curvature="0" />

</svg>