<?xml version="1.0" encoding="UTF-8" standalone="no"?>
<!-- Created with Inkscape (http://www.inkscape.org/) -->

<svg
   xmlns:dc="http://purl.org/dc/elements/1.1/"
   xmlns:cc="http://creativecommons.org/ns#"
   xmlns:rdf="http://www.w3.org/1999/02/22-rdf-syntax-ns#"
   xmlns:svg="http://www.w3.org/2000/svg"
   xmlns="http://www.w3.org/2000/svg"
   xmlns:sodipodi="http://sodipodi.sourceforge.net/DTD/sodipodi-0.dtd"
   xmlns:inkscape="http://www.inkscape.org/namespaces/inkscape"
   width="193.93959mm"
   height="151.07709mm"
   viewBox="0 0 193.93959 151.07709"
   version="1.1"
   id="svg3958"
   inkscape:version="0.92.4 (5da689c313, 2019-01-14)"
   sodipodi:docname="logo.svg">
  <defs
     id="defs3952" />
  <sodipodi:namedview
     id="base"
     pagecolor="#ffffff"
     bordercolor="#666666"
     borderopacity="1.0"
     inkscape:pageopacity="0.0"
     inkscape:pageshadow="2"
     inkscape:zoom="0.35"
     inkscape:cx="147.22936"
     inkscape:cy="317.93318"
     inkscape:document-units="mm"
     inkscape:current-layer="layer1"
     showgrid="false"
     inkscape:snap-text-baseline="true"
     fit-margin-top="0"
     fit-margin-left="0"
     fit-margin-right="0"
     fit-margin-bottom="0"
     inkscape:window-width="1366"
     inkscape:window-height="745"
     inkscape:window-x="1352"
     inkscape:window-y="-8"
     inkscape:window-maximized="1" />
  <metadata
     id="metadata3955">
    <rdf:RDF>
      <cc:Work
         rdf:about="">
        <dc:format>image/svg+xml</dc:format>
        <dc:type
           rdf:resource="http://purl.org/dc/dcmitype/StillImage" />
        <dc:title></dc:title>
      </cc:Work>
    </rdf:RDF>
  </metadata>
  <g
     inkscape:label="Capa 1"
     inkscape:groupmode="layer"
     id="layer1"
     transform="translate(-10.375443,-76.318604)">
    <text
       xml:space="preserve"
       style="font-style:normal;font-weight:normal;font-size:10.58333302px;line-height:1.25;font-family:sans-serif;letter-spacing:0px;word-spacing:0px;fill:#000000;fill-opacity:1;stroke:none;stroke-width:0.26458332"
       x="65.767853"
       y="126.15475"
       id="text4015"><tspan
         sodipodi:role="line"
         id="tspan4013"
         x="65.767853"
         y="135.81024"
         style="stroke-width:0.26458332" /></text>
    <flowRoot
       xml:space="preserve"
       id="flowRoot4017"
       style="font-style:normal;font-weight:normal;font-size:40px;line-height:1.25;font-family:sans-serif;letter-spacing:0px;word-spacing:0px;fill:#000000;fill-opacity:1;stroke:none"
       transform="scale(0.26458333)"><flowRegion
         id="flowRegion4019"><rect
           id="rect4021"
           width="8.5714283"
           height="82.85714"
           x="1151.4286"
           y="311.09113" /></flowRegion><flowPara
         id="flowPara4023"></flowPara></flowRoot>    <flowRoot
       xml:space="preserve"
       id="flowRoot4025"
       style="font-style:normal;font-weight:normal;font-size:40px;line-height:1.25;font-family:sans-serif;letter-spacing:0px;word-spacing:0px;fill:#000000;fill-opacity:1;stroke:none"
       transform="scale(0.26458333)"><flowRegion
         id="flowRegion4027"><rect
           id="rect4029"
           width="525.71429"
           height="402.85715"
           x="1368.5714"
           y="145.37683" /></flowRegion><flowPara
         id="flowPara4031"></flowPara></flowRoot>    <g
       id="g4044"
       transform="translate(1.133929,-0.68035703)">
      <path
         style="fill:#fcfcfc;stroke-width:0.26458335"
         d="M 10.375443,151.85715 V 76.318604 h 96.969797 96.96979 l -0.0159,29.831776 c -0.0158,29.55679 -0.0205,29.81496 -0.50717,28.00894 -1.27204,-4.72011 -4.47185,-8.81286 -8.4006,-10.74488 l -1.88311,-0.92604 -0.0867,-16.00729 -0.0867,-16.007297 -0.70559,-1.931182 c -1.53315,-4.196148 -4.7534,-7.114308 -9.09177,-8.238868 l -2.12257,-0.550195 -74.07649,0.07084 -74.076498,0.07084 -1.788078,0.606074 c -3.548041,1.202617 -6.881771,4.533185 -8.134082,8.126366 l -0.643422,1.846131 -0.09424,14.122571 -0.09424,14.12257 0.644429,-0.16174 c 3.152781,-0.79129 6.763663,-0.86242 9.579324,-0.18869 1.163536,0.27841 2.158747,0.46297 2.211582,0.41014 0.05283,-0.0528 0.07714,-5.33655 0.05401,-11.74159 -0.02733,-7.567049 0.05701,-12.013429 0.240812,-12.696017 0.162863,-0.604829 0.6261,-1.3393 1.09192,-1.731262 L 37.139,91.929027 h 70.9145 70.91449 l 0.87584,0.875844 c 0.62615,0.626145 0.92352,1.210739 1.04308,2.050521 0.092,0.646072 0.13243,7.182748 0.0899,14.525938 l -0.0774,13.35126 -1.56428,0.80395 c -0.89409,0.45951 -2.43832,1.65934 -3.60433,2.80049 -4.12246,4.03454 -5.75508,9.58377 -4.52645,15.38523 0.81197,3.834 2.35844,6.59066 5.00839,8.92766 1.63677,1.44348 4.31857,2.97406 6.33242,3.61411 1.69901,0.53999 6.42763,0.76794 8.40841,0.40534 1.93867,-0.35488 5.93688,-2.30095 7.5032,-3.65207 2.62706,-2.26613 4.55354,-5.49014 5.32773,-8.91611 0.47851,-2.11749 0.48626,-1.48356 0.50823,41.57212 l 0.0223,43.72239 H 107.34524 10.375443 Z m 141.418407,73.62031 c 0.80894,-0.69835 1.11489,-2.62564 0.80745,-5.08636 -0.32533,-2.60377 -0.041,-2.51977 -8.54512,-2.52446 -4.03821,-0.002 -7.47318,-0.0915 -7.63327,-0.19843 -0.1601,-0.10692 -1.33732,-3.34955 -2.61605,-7.20585 -1.27874,-3.8563 -2.55529,-7.63654 -2.83678,-8.40052 l -0.51182,-1.38906 H 108.01271 85.567158 l -0.782209,2.18281 c -0.430215,1.20055 -1.70947,4.98078 -2.842789,8.40052 -1.133319,3.41974 -2.19157,6.30518 -2.351667,6.4121 -0.160099,0.10691 -3.57432,0.19621 -7.587158,0.19843 l -7.296065,0.004 -0.624814,0.66509 c -1.091401,1.16174 -1.068856,5.45228 0.03603,6.85692 l 0.53495,0.68008 h 43.225414 43.22542 z m 31.28214,-29.14551 c 5.05805,-1.08529 8.71687,-4.86633 10.00872,-10.34304 0.29566,-1.25341 0.37541,-4.28165 0.3785,-14.37199 0.004,-12.44786 -0.009,-12.77977 -0.49966,-12.62415 -1.10062,0.34933 -3.69406,0.66652 -5.44956,0.66652 -1.64467,0 -2.61115,-0.1158 -5.89301,-0.70612 l -0.86594,-0.15576 0.0332,11.71008 c 0.0318,11.22216 0.0117,11.73902 -0.48249,12.40487 -0.28363,0.38213 -0.80187,0.84186 -1.15164,1.02162 -0.50003,0.25697 -15.70665,0.32683 -71.14741,0.32683 -55.440763,0 -70.647389,-0.0699 -71.147417,-0.32683 -0.349774,-0.17976 -0.857971,-0.62604 -1.129326,-0.99173 -0.466701,-0.62896 -0.493421,-1.41564 -0.494278,-14.55209 -5.03e-4,-7.63795 0.0017,-14.09848 0.0048,-14.35675 0.0032,-0.25826 0.308392,-0.58463 0.678285,-0.72526 1.299253,-0.49398 3.776561,-2.3697 5.133598,-3.88696 2.531684,-2.83061 4.255212,-7.45167 4.243443,-11.37737 -0.01077,-3.59366 -1.713177,-8.17288 -4.007361,-10.77921 -1.179138,-1.33957 -3.53544,-3.321 -3.949307,-3.321 -0.138549,0 -0.241575,2.94959 -0.242593,6.94531 l -0.0019,6.94531 -1.903511,1.05834 c -3.540616,1.96859 -6.630246,3.57187 -6.883152,3.57187 -0.138394,0 -2.082389,-1.0418 -4.319988,-2.3151 l -4.068361,-2.31511 -0.0096,-6.94531 c -0.0053,-3.81992 -0.111583,-6.94531 -0.236177,-6.94531 -0.437533,0 -2.636761,1.84512 -3.843636,3.22476 -2.441127,2.79058 -4.131912,7.17695 -4.131912,10.71934 0,4.01424 1.664319,8.61725 4.125264,11.40925 1.396238,1.58406 4.454155,3.83693 5.819772,4.28762 l 0.902881,0.29798 0.0046,15.12688 c 0.005,16.55267 0.04008,17.01072 1.559319,20.37676 1.514396,3.35531 4.984727,6.11872 8.708609,6.93463 2.294765,0.50279 147.915518,0.51357 150.257188,0.0111 z m -33.92658,-45.78841 c 0,-0.42062 -0.37887,-0.62714 -1.98438,-1.08174 -2.3919,-0.67725 -3.55573,-1.16383 -5.82025,-2.43337 l -1.72037,-0.96448 1.71979,-0.34579 c 5.57345,-1.12061 9.51206,-5.80928 9.51206,-11.32351 0,-4.16542 -2.57471,-8.42158 -6.15934,-10.18179 -2.89455,-1.42133 -4.49413,-1.62876 -13.73762,-1.7814 l -8.40052,-0.13872 v 7.00015 c 0,3.85009 -0.0787,10.23419 -0.1748,14.1869 l -0.1748,7.18673 h 6.39251 6.39251 v -3.175 c 0,-1.74625 0.0728,-3.175 0.16172,-3.175 0.0889,0 0.71402,0.4566 1.38906,1.01466 3.93055,3.24944 9.35023,5.93663 11.67838,5.79039 0.7244,-0.0455 0.92605,-0.17137 0.92605,-0.57803 z m -12.9006,-7.07596 -1.25892,-1.13543 0.002,-9.36281 0.002,-9.36282 2.52148,0.18509 c 5.52872,0.40583 8.45536,1.9088 10.64226,5.4653 0.89306,1.45236 1.47707,4.08401 1.29432,5.83246 -0.27756,2.65555 -1.12099,4.40514 -3.05678,6.34093 -2.08335,2.08335 -3.87292,2.87531 -6.90337,3.05503 l -1.98437,0.11768 -1.25893,-1.13543 z m -43.937965,6.77537 c 0.0894,-0.23297 -0.0036,-0.5288 -0.20674,-0.65741 -0.203107,-0.12861 -3.197019,-0.23565 -6.653139,-0.23788 l -6.283854,-0.004 v -8.99584 -8.99583 l 5.886979,-0.004 c 3.237839,-0.002 6.053157,-0.10927 6.256264,-0.23788 0.203105,-0.12861 0.296138,-0.42444 0.20674,-0.65741 -0.142526,-0.37141 -0.912961,-0.42358 -6.256263,-0.42358 h -6.09372 v -3.16973 -3.16974 l 5.622396,-0.0714 c 5.422204,-0.0689 5.622396,-0.0902 5.622396,-0.60058 0,-0.5203 -0.199321,-0.53031 -11.908063,-0.59796 l -11.908065,-0.0688 0.0019,14.15736 0.0019,14.15736 12.774449,5.3e-4 c 11.469206,5.3e-4 12.791059,-0.0428 12.936993,-0.42307 z m 15.166685,-9.23372 v -9.65729 h 5.92073 c 4.86093,0 5.97796,-0.069 6.24049,-0.38529 0.69256,-0.83449 0.0225,-0.93763 -6.09142,-0.93763 h -6.0698 v -3.16973 -3.16974 l 5.6224,-0.0714 c 5.4222,-0.0689 5.62239,-0.0902 5.62239,-0.60058 0,-0.5203 -0.19932,-0.53031 -11.90625,-0.59795 l -11.906249,-0.0688 -0.009,14.15784 -0.009,14.15785 h 6.292839 6.29284 v -9.65729 z m 79.50002,5.33133 c -0.28704,-0.19647 -1.53731,-0.89844 -2.77837,-1.55993 -1.24106,-0.66149 -2.64004,-1.53929 -3.10885,-1.95066 l -0.85238,-0.74795 v -4.11077 c 0,-3.83894 0.0354,-4.13286 0.53491,-4.44483 0.2942,-0.18373 1.69319,-0.94233 3.10886,-1.68577 1.41566,-0.74344 2.7849,-1.53553 3.04274,-1.7602 0.52975,-0.46159 0.74091,-0.38366 3.76453,1.38946 0.87313,0.51201 2.15305,1.24964 2.84427,1.63916 l 1.25677,0.70822 v 4.32358 c 0,2.70599 -0.099,4.32357 -0.26458,4.32357 -0.14552,0 -0.48462,0.22004 -0.75355,0.48897 -0.3839,0.3839 -5.95895,3.74436 -6.21195,3.74436 -0.0333,0 -0.29536,-0.16074 -0.5824,-0.35721 z"
         id="path4048"
         inkscape:connector-curvature="0" />
      <path
         style="fill:#9a9a9a;stroke-width:0.26458335"
         d="m 64.118485,225.3927 c -1.104885,-1.40464 -1.12743,-5.69518 -0.03603,-6.85692 l 0.624814,-0.66509 7.296065,-0.004 c 4.012838,-0.002 7.427059,-0.0915 7.587158,-0.19844 0.160097,-0.10691 1.218348,-2.99236 2.351667,-6.4121 1.133319,-3.41974 2.412574,-7.19997 2.842789,-8.40052 l 0.782209,-2.18281 h 22.445553 22.44555 l 0.51182,1.38906 c 0.28149,0.76399 1.55804,4.54422 2.83678,8.40052 1.27873,3.8563 2.45595,7.09894 2.61605,7.20585 0.16009,0.10691 3.59506,0.19621 7.63327,0.19844 8.50415,0.005 8.21979,-0.0793 8.54512,2.52445 0.30744,2.46072 0.002,4.38802 -0.80745,5.08637 l -0.68958,0.59531 H 107.87885 64.653435 l -0.53495,-0.68008 z M 32.818799,196.32083 c -3.723882,-0.81591 -7.194213,-3.57932 -8.708609,-6.93463 -1.51924,-3.36604 -1.554292,-3.82409 -1.559319,-20.37676 l -0.0046,-15.12688 -0.902881,-0.29798 c -1.365617,-0.45069 -4.423534,-2.70356 -5.819772,-4.28762 -2.460945,-2.792 -4.125264,-7.39501 -4.125264,-11.40925 0,-3.54239 1.690785,-7.92876 4.131912,-10.71934 1.206875,-1.37964 3.406103,-3.22476 3.843636,-3.22476 0.124594,0 0.230874,3.12539 0.236177,6.94531 l 0.0096,6.94531 4.068362,2.31511 c 2.237599,1.2733 4.181593,2.3151 4.319987,2.3151 0.252907,0 3.342536,-1.60328 6.883234,-3.57187 l 1.903512,-1.05834 0.0019,-6.94531 c 0.0011,-3.99572 0.104045,-6.94531 0.242594,-6.94531 0.413866,0 2.770169,1.98143 3.949306,3.321 2.294183,2.60633 3.996586,7.18555 4.00736,10.77921 0.01177,3.9257 -1.711759,8.54676 -4.243443,11.37737 -1.357037,1.51726 -3.834344,3.39298 -5.133598,3.88696 -0.369893,0.14063 -0.675121,0.467 -0.678285,0.72526 -0.0032,0.25827 -0.0053,6.7188 -0.0048,14.35675 8.46e-4,13.13645 0.02758,13.92313 0.494278,14.55209 0.271356,0.36569 0.779552,0.81197 1.129326,0.99173 0.500028,0.25697 15.706654,0.32683 71.147418,0.32683 55.44076,0 70.64738,-0.0699 71.14741,-0.32683 0.34977,-0.17976 0.86801,-0.63949 1.15164,-1.02162 0.49421,-0.66585 0.51431,-1.18271 0.48249,-12.40487 l -0.0332,-11.71008 0.86594,0.15576 c 3.28186,0.59032 4.24834,0.70612 5.89301,0.70612 1.7555,0 4.34894,-0.31719 5.44956,-0.66652 0.49033,-0.15562 0.50346,0.17629 0.49966,12.62415 -0.003,10.09034 -0.0828,13.11858 -0.3785,14.37199 -1.29185,5.47671 -4.95066,9.25775 -10.00872,10.34304 -2.34167,0.50245 -147.962427,0.49167 -150.257192,-0.0111 z M 184.60357,154.72827 c -3.20336,-0.66714 -6.1522,-2.09981 -8.39083,-4.07663 -2.65126,-2.34119 -4.19665,-5.09644 -5.00839,-8.92939 -0.85718,-4.04752 -0.45557,-7.19157 1.42452,-11.15189 0.85346,-1.79779 1.46226,-2.62864 3.10193,-4.23334 1.16601,-1.14115 2.71024,-2.34098 3.60433,-2.80049 l 1.56428,-0.80395 0.0774,-13.35126 c 0.0425,-7.34319 0.002,-13.879862 -0.0899,-14.525934 -0.11956,-0.839782 -0.41693,-1.424376 -1.04308,-2.050521 l -0.87584,-0.875844 H 108.05346 37.138961 l -0.809053,0.680774 c -0.46582,0.391962 -0.929057,1.126433 -1.09192,1.731262 -0.183802,0.682588 -0.268139,5.128968 -0.240812,12.696013 0.02313,6.40504 -0.0012,11.68875 -0.05401,11.74159 -0.05283,0.0528 -1.048046,-0.13173 -2.211582,-0.41014 -2.815661,-0.67373 -6.426543,-0.6026 -9.579324,0.18869 l -0.644429,0.16174 0.09424,-14.12257 0.09424,-14.122567 0.643422,-1.846131 c 1.252311,-3.593181 4.586041,-6.923749 8.134082,-8.126366 l 1.788078,-0.606074 74.076497,-0.07084 74.07649,-0.07084 2.12257,0.550195 c 4.33837,1.12456 7.55862,4.04272 9.09177,8.238868 l 0.70559,1.931182 0.0867,16.007293 0.0867,16.00729 1.88311,0.92604 c 2.81685,1.38523 5.62901,4.25477 7.01282,7.15592 1.95764,4.1042 2.33121,7.16346 1.39287,11.40653 -0.78492,3.54931 -2.66578,6.73337 -5.34026,9.0404 -1.50985,1.30241 -5.53872,3.28954 -7.34087,3.62069 -1.38801,0.25505 -5.45074,0.31138 -6.51233,0.0903 z m 5.84813,-9.6582 c 1.55718,-0.89523 3.05127,-1.84773 3.3202,-2.11666 0.26893,-0.26893 0.60803,-0.48897 0.75355,-0.48897 0.16559,0 0.26458,-1.61758 0.26458,-4.32357 v -4.32358 l -1.25677,-0.70822 c -0.69122,-0.38952 -1.97114,-1.12715 -2.84427,-1.63916 -3.02362,-1.77312 -3.23478,-1.85105 -3.76453,-1.38946 -0.25784,0.22467 -1.62708,1.01676 -3.04274,1.7602 -1.41567,0.74344 -2.81466,1.50204 -3.10886,1.68577 -0.49954,0.31197 -0.53491,0.60589 -0.53491,4.44483 v 4.11077 l 0.85238,0.74795 c 0.46881,0.41137 1.86779,1.28917 3.10885,1.95066 1.24106,0.66149 2.49133,1.36346 2.77837,1.55993 0.28704,0.19647 0.54912,0.35721 0.5824,0.35721 0.0333,0 1.33457,-0.73246 2.89175,-1.6277 z m -44.60959,5.63203 c -2.78794,-0.91508 -6.50414,-3.06191 -9.29713,-5.37092 -0.67504,-0.55806 -1.30012,-1.01466 -1.38906,-1.01466 -0.089,0 -0.16172,1.42875 -0.16172,3.175 v 3.175 h -6.39251 -6.39251 l 0.1748,-7.18673 c 0.0961,-3.95271 0.1748,-10.33681 0.1748,-14.1869 v -7.00015 l 8.40052,0.13872 c 9.24349,0.15264 10.84307,0.36007 13.73762,1.7814 3.58463,1.76021 6.15934,6.01637 6.15934,10.18179 0,5.51423 -3.93861,10.2029 -9.51206,11.32351 l -1.71979,0.34579 1.72037,0.96448 c 2.26452,1.26954 3.42835,1.75612 5.82025,2.43337 1.60551,0.4546 1.98438,0.66112 1.98438,1.08174 0,0.71444 -1.40803,0.78195 -3.3073,0.15856 z m -2.77812,-6.93113 c 2.20455,-0.8286 4.84116,-3.45643 5.65366,-5.63483 1.14198,-3.06175 0.92775,-6.46021 -0.55971,-8.87923 -2.1869,-3.5565 -5.11354,-5.05947 -10.64226,-5.4653 l -2.52148,-0.18509 -0.002,9.36282 -0.002,9.36281 1.25893,1.13543 1.25892,1.13543 1.98438,-0.11768 c 1.14136,-0.0677 2.65878,-0.37116 3.57187,-0.71436 z m -76.466399,-7.26281 -0.0019,-14.15736 11.908065,0.0688 c 11.708742,0.0677 11.908063,0.0777 11.908063,0.59796 0,0.51033 -0.200192,0.53171 -5.622396,0.60058 l -5.622396,0.0714 v 3.16974 3.16973 h 6.093719 c 5.343303,0 6.113738,0.0522 6.256264,0.42358 0.0894,0.23297 -0.0036,0.5288 -0.20674,0.65741 -0.203107,0.1286 -3.018425,0.23565 -6.256264,0.23788 l -5.886942,0.004 v 8.99583 8.99584 l 6.283854,0.004 c 3.45612,0.002 6.450032,0.10927 6.653139,0.23788 0.203105,0.1286 0.296138,0.42444 0.20674,0.6574 -0.145933,0.3803 -1.467786,0.42353 -12.936993,0.42308 l -12.774449,-5.3e-4 -0.0019,-14.15736 z m 28.303242,5.3e-4 0.009,-14.15785 11.906247,0.0688 c 11.70693,0.0676 11.90625,0.0776 11.90625,0.59795 0,0.51033 -0.20019,0.53171 -5.6224,0.60058 l -5.62239,0.0714 v 3.16974 3.16974 h 6.0698 c 6.11392,0 6.78398,0.10314 6.09141,0.93763 -0.26253,0.3163 -1.37956,0.38527 -6.24049,0.38527 h -5.92073 v 9.65729 9.65729 h -6.29284 -6.292838 l 0.009,-14.15785 z"
         id="path4046"
         inkscape:connector-curvature="0" />
    </g>
  </g>
</svg>
